<svg width="16" height="16" viewBox="0 0 16 16" fill="none" xmlns="http://www.w3.org/2000/svg">
<path d="M10.0001 1.33334H4.00008C3.64646 1.33334 3.30732 1.47382 3.05727 1.72387C2.80722 1.97392 2.66675 2.31305 2.66675 2.66668V13.3333C2.66675 13.687 2.80722 14.0261 3.05727 14.2762C3.30732 14.5262 3.64646 14.6667 4.00008 14.6667H12.0001C12.3537 14.6667 12.6928 14.5262 12.9429 14.2762C13.1929 14.0261 13.3334 13.687 13.3334 13.3333V4.66668L10.0001 1.33334Z" stroke="#155DFC" stroke-width="1.33333" stroke-linecap="round" stroke-linejoin="round"/>
<path d="M9.33325 1.33334V4.00001C9.33325 4.35363 9.47373 4.69277 9.72378 4.94282C9.97383 5.19287 10.313 5.33334 10.6666 5.33334H13.3333" stroke="#155DFC" stroke-width="1.33333" stroke-linecap="round" stroke-linejoin="round"/>
<path d="M6.66659 8C6.48977 8 6.32021 8.07024 6.19518 8.19526C6.07016 8.32029 5.99992 8.48986 5.99992 8.66667V9.33333C5.99992 9.51014 5.92968 9.67971 5.80466 9.80474C5.67963 9.92976 5.51006 10 5.33325 10C5.51006 10 5.67963 10.0702 5.80466 10.1953C5.92968 10.3203 5.99992 10.4899 5.99992 10.6667V11.3333C5.99992 11.5101 6.07016 11.6797 6.19518 11.8047C6.32021 11.9298 6.48977 12 6.66659 12" stroke="#155DFC" stroke-width="1.33333" stroke-linecap="round" stroke-linejoin="round"/>
<path d="M9.33325 12C9.51006 12 9.67963 11.9298 9.80466 11.8047C9.92968 11.6797 9.99992 11.5101 9.99992 11.3333V10.6667C9.99992 10.4899 10.0702 10.3203 10.1952 10.1953C10.3202 10.0702 10.4898 10 10.6666 10C10.4898 10 10.3202 9.92976 10.1952 9.80474C10.0702 9.67971 9.99992 9.51014 9.99992 9.33333V8.66667C9.99992 8.48986 9.92968 8.32029 9.80466 8.19526C9.67963 8.07024 9.51006 8 9.33325 8" stroke="#155DFC" stroke-width="1.33333" stroke-linecap="round" stroke-linejoin="round"/>
</svg>
