<svg width="20" height="20" viewBox="0 0 20 20" fill="none" xmlns="http://www.w3.org/2000/svg">
<path d="M12.5 1.66666H5C4.55798 1.66666 4.13405 1.84225 3.82149 2.15481C3.50893 2.46737 3.33334 2.8913 3.33334 3.33332V16.6667C3.33334 17.1087 3.50893 17.5326 3.82149 17.8452C4.13405 18.1577 4.55798 18.3333 5 18.3333H15C15.442 18.3333 15.866 18.1577 16.1785 17.8452C16.4911 17.5326 16.6667 17.1087 16.6667 16.6667V5.83332L12.5 1.66666Z" stroke="#0A0A0A" stroke-width="1.66667" stroke-linecap="round" stroke-linejoin="round"/>
<path d="M11.6667 1.66666V4.99999C11.6667 5.44202 11.8423 5.86594 12.1548 6.1785C12.4674 6.49106 12.8913 6.66666 13.3333 6.66666H16.6667" stroke="#0A0A0A" stroke-width="1.66667" stroke-linecap="round" stroke-linejoin="round"/>
<path d="M8.33333 10C8.11232 10 7.90036 10.0878 7.74408 10.2441C7.58779 10.4004 7.5 10.6123 7.5 10.8333V11.6667C7.5 11.8877 7.4122 12.0996 7.25592 12.2559C7.09964 12.4122 6.88768 12.5 6.66666 12.5C6.88768 12.5 7.09964 12.5878 7.25592 12.7441C7.4122 12.9004 7.5 13.1123 7.5 13.3333V14.1667C7.5 14.3877 7.58779 14.5996 7.74408 14.7559C7.90036 14.9122 8.11232 15 8.33333 15" stroke="#0A0A0A" stroke-width="1.66667" stroke-linecap="round" stroke-linejoin="round"/>
<path d="M11.6667 15C11.8877 15 12.0996 14.9122 12.2559 14.7559C12.4122 14.5996 12.5 14.3877 12.5 14.1667V13.3333C12.5 13.1123 12.5878 12.9004 12.7441 12.7441C12.9004 12.5878 13.1123 12.5 13.3333 12.5C13.1123 12.5 12.9004 12.4122 12.7441 12.2559C12.5878 12.0996 12.5 11.8877 12.5 11.6667V10.8333C12.5 10.6123 12.4122 10.4004 12.2559 10.2441C12.0996 10.0878 11.8877 10 11.6667 10" stroke="#0A0A0A" stroke-width="1.66667" stroke-linecap="round" stroke-linejoin="round"/>
</svg>
