<svg width="20" height="20" viewBox="0 0 20 20" fill="none" xmlns="http://www.w3.org/2000/svg">
<path d="M9.18096 2.34501C9.21666 2.15385 9.3181 1.98119 9.4677 1.85694C9.61731 1.73269 9.80565 1.66468 10.0001 1.66468C10.1946 1.66468 10.3829 1.73269 10.5325 1.85694C10.6821 1.98119 10.7836 2.15385 10.8193 2.34501L11.6951 6.97668C11.7573 7.30597 11.9174 7.60886 12.1543 7.84582C12.3913 8.08278 12.6942 8.2428 13.0235 8.30501L17.6551 9.18084C17.8463 9.21655 18.0189 9.31799 18.1432 9.46759C18.2674 9.61719 18.3355 9.80554 18.3355 10C18.3355 10.1945 18.2674 10.3828 18.1432 10.5324C18.0189 10.682 17.8463 10.7835 17.6551 10.8192L13.0235 11.695C12.6942 11.7572 12.3913 11.9172 12.1543 12.1542C11.9174 12.3912 11.7573 12.6941 11.6951 13.0233L10.8193 17.655C10.7836 17.8462 10.6821 18.0188 10.5325 18.1431C10.3829 18.2673 10.1946 18.3353 10.0001 18.3353C9.80565 18.3353 9.61731 18.2673 9.4677 18.1431C9.3181 18.0188 9.21666 17.8462 9.18096 17.655L8.30512 13.0233C8.24292 12.6941 8.08289 12.3912 7.84593 12.1542C7.60897 11.9172 7.30608 11.7572 6.97679 11.695L2.34512 10.8192C2.15396 10.7835 1.9813 10.682 1.85706 10.5324C1.73281 10.3828 1.66479 10.1945 1.66479 10C1.66479 9.80554 1.73281 9.61719 1.85706 9.46759C1.9813 9.31799 2.15396 9.21655 2.34512 9.18084L6.97679 8.30501C7.30608 8.2428 7.60897 8.08278 7.84593 7.84582C8.08289 7.60886 8.24292 7.30597 8.30512 6.97668L9.18096 2.34501Z" stroke="#0A0A0A" stroke-width="1.66667" stroke-linecap="round" stroke-linejoin="round"/>
<path d="M16.6667 1.66666V5" stroke="#0A0A0A" stroke-width="1.66667" stroke-linecap="round" stroke-linejoin="round"/>
<path d="M18.3333 3.33334H15" stroke="#0A0A0A" stroke-width="1.66667" stroke-linecap="round" stroke-linejoin="round"/>
<path d="M3.33341 18.3333C4.25389 18.3333 5.00008 17.5871 5.00008 16.6667C5.00008 15.7462 4.25389 15 3.33341 15C2.41294 15 1.66675 15.7462 1.66675 16.6667C1.66675 17.5871 2.41294 18.3333 3.33341 18.3333Z" stroke="#0A0A0A" stroke-width="1.66667" stroke-linecap="round" stroke-linejoin="round"/>
</svg>
